<?xml version="1.0" encoding="UTF-8" standalone="no"?>
<!-- Generator: Adobe Illustrator 19.0.0, SVG Export Plug-In . SVG Version: 6.00 Build 0)  -->

<svg
   xmlns:dc="http://purl.org/dc/elements/1.1/"
   xmlns:cc="http://creativecommons.org/ns#"
   xmlns:rdf="http://www.w3.org/1999/02/22-rdf-syntax-ns#"
   xmlns:svg="http://www.w3.org/2000/svg"
   xmlns="http://www.w3.org/2000/svg"
   xmlns:sodipodi="http://sodipodi.sourceforge.net/DTD/sodipodi-0.dtd"
   xmlns:inkscape="http://www.inkscape.org/namespaces/inkscape"
   version="1.1"
   id="Capa_1"
   x="0px"
   y="0px"
   viewBox="0 0 130 150"
   xml:space="preserve"
   inkscape:version="0.91 r13725"
   sodipodi:docname="bot.svg"
   width="130"
   height="150"><metadata
     id="metadata16"><rdf:RDF><cc:Work
         rdf:about=""><dc:format>image/svg+xml</dc:format><dc:type
           rdf:resource="http://purl.org/dc/dcmitype/StillImage" /><dc:title></dc:title></cc:Work></rdf:RDF></metadata><defs
     id="defs14" /><sodipodi:namedview
     pagecolor="#ffffff"
     bordercolor="#666666"
     borderopacity="1"
     objecttolerance="10"
     gridtolerance="10"
     guidetolerance="10"
     inkscape:pageopacity="1"
     inkscape:pageshadow="2"
     inkscape:window-width="1360"
     inkscape:window-height="768"
     id="namedview12"
     showgrid="false"
     fit-margin-top="0"
     fit-margin-left="0"
     fit-margin-right="0"
     fit-margin-bottom="0"
     inkscape:zoom="2.1442622"
     inkscape:cx="125.16351"
     inkscape:cy="70.45924"
     inkscape:window-x="1366"
     inkscape:window-y="0"
     inkscape:window-maximized="0"
     inkscape:current-layer="Capa_1" /><style
     type="text/css"
     id="style3">
	.st0{fill:none;stroke:#000000;stroke-width:5;stroke-linecap:square;stroke-linejoin:round;stroke-miterlimit:10;}
	.st1{fill:none;stroke:#000000;stroke-width:5;stroke-linecap:square;stroke-miterlimit:10;}
</style><g
     id="XMLID_28_"
     transform="translate(-46.510091,-84.389298)"><path
       id="XMLID_126_"
       class="st0"
       d="m 141.1,228.8 0,-20.6 20.6,0 2.7,0 c 2.9,0 5.2,2 5.8,4.7 0.1,0.4 0.1,0.8 0.1,1.3 l 0,14.7 -15.8,0"
       inkscape:connector-curvature="0"
       style="fill:none;stroke:#000000;stroke-width:5;stroke-linecap:square;stroke-linejoin:round;stroke-miterlimit:10" /><path
       id="XMLID_129_"
       class="st0"
       d="m 127.7,117.7 c 0,5 4,9 9,9 l 8.8,0 c 5,0 9,-4 9,-9 l 0,-8.8 c 0,-5 -4,-9 -9,-9 l -11.5,0"
       inkscape:connector-curvature="0"
       style="fill:none;stroke:#000000;stroke-width:5;stroke-linecap:square;stroke-linejoin:round;stroke-miterlimit:10" /><path
       id="XMLID_128_"
       class="st0"
       d="m 88.3,99.9 -11.5,0 c -5,0 -9,4 -9,9 l 0,8.8 c 0,5 4,9 9,9 l 8.8,0 c 5,0 9,-4 9,-9"
       inkscape:connector-curvature="0"
       style="fill:none;stroke:#000000;stroke-width:5;stroke-linecap:square;stroke-linejoin:round;stroke-miterlimit:10" /><path
       id="XMLID_27_"
       class="st1"
       d="m 166.2,106.5 c 0,-9.6 -7.7,-17.3 -17.3,-17.3 l -75.4,0 c -9.6,0 -17.3,7.7 -17.3,17.3 l 0,25.3 c 0,9.6 7.7,17.3 17.3,17.3 l 7.7,0 41.1,0 1.5,0 c 1.2,0 2.5,0.1 3.6,0.4 7.8,1.6 13.7,8.1 13.7,15.9 l 0,7.3 0,35.5 0,20.6 c 0,0 -59.9,0 -59.9,0 l 0,-20.6 -20.6,0 -2.7,0 c -2.9,0 -5.2,2 -5.8,4.7 -0.1,0.4 -0.1,0.8 -0.1,1.3 l 0,14.7 14.6,0"
       inkscape:connector-curvature="0"
       style="fill:none;stroke:#000000;stroke-width:5;stroke-linecap:square;stroke-miterlimit:10" /><path
       id="XMLID_125_"
       class="st0"
       d="m 124.6,133.6 c 0,5 -4,9 -9,9 l -8.8,0 c -5,0 -9,-4 -9,-9"
       inkscape:connector-curvature="0"
       style="fill:none;stroke:#000000;stroke-width:5;stroke-linecap:square;stroke-linejoin:round;stroke-miterlimit:10" /><path
       id="XMLID_127_"
       class="st0"
       d="m 81.2,162.8 c 1.6,-7.8 8.1,-13.7 15.9,-13.7"
       inkscape:connector-curvature="0"
       style="fill:none;stroke:#000000;stroke-width:5;stroke-linecap:square;stroke-linejoin:round;stroke-miterlimit:10" /></g></svg>