<?xml version="1.0" encoding="UTF-8" standalone="no"?>
<!-- Generator: Adobe Illustrator 19.0.0, SVG Export Plug-In . SVG Version: 6.00 Build 0)  -->

<svg
   xmlns:dc="http://purl.org/dc/elements/1.1/"
   xmlns:cc="http://creativecommons.org/ns#"
   xmlns:rdf="http://www.w3.org/1999/02/22-rdf-syntax-ns#"
   xmlns:svg="http://www.w3.org/2000/svg"
   xmlns="http://www.w3.org/2000/svg"
   xmlns:sodipodi="http://sodipodi.sourceforge.net/DTD/sodipodi-0.dtd"
   xmlns:inkscape="http://www.inkscape.org/namespaces/inkscape"
   version="1.1"
   id="Capa_1"
   x="0px"
   y="0px"
   viewBox="0 0 249.52993 297.57325"
   xml:space="preserve"
   inkscape:version="0.91 r13725"
   sodipodi:docname="bot.svg"
   width="70.42289mm"
   height="83.981781mm"><metadata
     id="metadata16"><rdf:RDF><cc:Work
         rdf:about=""><dc:format>image/svg+xml</dc:format><dc:type
           rdf:resource="http://purl.org/dc/dcmitype/StillImage" /><dc:title></dc:title></cc:Work></rdf:RDF></metadata><defs
     id="defs14" /><sodipodi:namedview
     pagecolor="#ffffff"
     bordercolor="#666666"
     borderopacity="1"
     objecttolerance="10"
     gridtolerance="10"
     guidetolerance="10"
     inkscape:pageopacity="1"
     inkscape:pageshadow="2"
     inkscape:window-width="1360"
     inkscape:window-height="768"
     id="namedview12"
     showgrid="false"
     fit-margin-top="0"
     fit-margin-left="0"
     fit-margin-right="0"
     fit-margin-bottom="0"
     inkscape:zoom="1.5162223"
     inkscape:cx="207.83392"
     inkscape:cy="164.74574"
     inkscape:window-x="1366"
     inkscape:window-y="0"
     inkscape:window-maximized="0"
     inkscape:current-layer="Capa_1"
     units="mm"
     inkscape:showpageshadow="false" /><style
     type="text/css"
     id="style3">
	.st0{fill:none;stroke:#000000;stroke-width:5;stroke-linecap:square;stroke-linejoin:round;stroke-miterlimit:10;}
	.st1{fill:none;stroke:#000000;stroke-width:5;stroke-linecap:square;stroke-miterlimit:10;}
</style><g
     transform="translate(-719.1,-11.226789)"
     id="XMLID_59_"><g
       id="XMLID_61_"><path
         inkscape:connector-curvature="0"
         id="XMLID_60_"
         class="st1"
         d="M 873.9,293.6"
         style="fill:none;stroke:#000000;stroke-width:5;stroke-linecap:square;stroke-miterlimit:10" /></g><path
       inkscape:connector-curvature="0"
       id="XMLID_63_"
       d="m 963.6,261.7 c -1.8,-8.5 -9.3,-14.6 -17.9,-14.6 l -37.3,0 0,-75.6 c 0,-18 -13.3,-33.8 -31.6,-37.5 -2.7,-0.6 -5.5,-0.8 -8.3,-0.8 l -43.9,0 0,0 -7,0 c 0,0 0,0 0,0 l -44.8,0 c -14.3,0 -25.9,-11.9 -25.9,-26.4 l 0,-49 c 0,-14.6 11.6,-26.4 25.9,-26.4 l 143.4,0 c 14.3,0 25.9,11.9 25.9,26.4 l 0,7 14,0 0,-7 c 0,-22.3 -17.9,-40.4 -39.9,-40.4 l -143.4,0 c -22,0 -39.9,18.1 -39.9,40.4 l 0,48.9 c 0,22.3 17.9,40.4 39.9,40.4 l 15.8,0 c -4.1,4.9 -7,10.9 -8.4,17.6 -0.6,2.7 -0.8,5.5 -0.8,8.3 l 0,9.9 14,0 0,-9.9 c 0,-1.9 0.2,-3.7 0.6,-5.5 2.4,-11.8 12.4,-20.4 23.8,-20.4 l 50.9,0 c 1.9,0 3.7,0.2 5.5,0.6 11.8,2.4 20.4,12.4 20.4,23.8 l 0,82.5 0,32.8 -99.9,0 0,-39.8 -51.3,0 c -8.6,0 -16.1,6.2 -17.9,14.6 -0.3,1.3 -0.4,2.6 -0.4,3.9 l 0,35.3 41.8,0 0,-14 -27.8,0 0,-21.3 c 0,-0.3 0,-0.7 0.1,-1 0.4,-2 2.2,-3.5 4.2,-3.5 l 37.3,0 0,39.8 113.9,0 0,0 14,0 0,0 0,-39.8 37.3,0 c 2,0 3.8,1.5 4.2,3.5 0.1,0.3 0.1,0.6 0.1,1 l 0,21.3 -30.1,0 0,14 36.9,0 c 3.9,0 7,-3.1 7,-7 l 0,-28.3 c 0,-1.2 -0.1,-2.5 -0.4,-3.8 z" /></g><g
     id="XMLID_40_"
     transform="matrix(0.93243829,0,0,0.93243829,-661.65852,-10.3419)"><path
       id="XMLID_41_"
       class="st2"
       d="m 905,101.8 -15.6,0 c -11.5,0 -20.9,-9.5 -20.9,-21.1 l 0,-4.9 9.8,0 0,4.9 c 0,6.2 4.9,11.3 11,11.3 l 15.7,0 c 6.1,0 11,-5.1 11,-11.3 l 0,-15.9 c 0,-6.2 -4.9,-11.3 -11,-11.3 l -25.4,0 0,-9.8 25.4,0 c 11.5,0 20.9,9.5 20.9,21.1 l 0,15.8 c 0,11.7 -9.4,21.2 -20.9,21.2 z"
       inkscape:connector-curvature="0"
       style="stroke:#000000;stroke-width:2;stroke-miterlimit:10" /></g><g
     id="XMLID_38_"
     transform="matrix(0.93243829,0,0,0.93243829,-663.65852,-10.3419)"><path
       id="XMLID_39_"
       class="st2"
       d="m 798.9,101.8 -15.6,0 c -11.5,0 -20.9,-9.5 -20.9,-21.1 l 0,-15.9 c 0,-11.6 9.4,-21.1 20.9,-21.1 l 25.4,0 0,9.8 -25.4,0 c -6.1,0 -11,5.1 -11,11.3 l 0,15.8 c 0,6.2 4.9,11.3 11,11.3 l 15.6,0 c 6.1,0 11,-5.1 11,-11.3 l 0,-4.9 9.8,0 0,4.9 c 0.1,11.7 -9.3,21.2 -20.8,21.2 z"
       inkscape:connector-curvature="0"
       style="stroke:#000000;stroke-width:2;stroke-miterlimit:10" /></g><g
     id="XMLID_1_"
     transform="matrix(0.86613873,0,0,0.86613873,-606.06999,2.440451)"><path
       id="XMLID_10_"
       class="st2"
       d="m 852,129.1 -15.6,0 c -11.5,0 -20.9,-9.5 -20.9,-21.1 l 0,-4.9 9.8,0 0,4.9 c 0,6.2 4.9,11.3 11,11.3 l 15.7,0 c 6.1,0 11,-5.1 11,-11.3 l 0,-4.9 9.8,0 0,4.9 c 0,11.7 -9.3,21.1 -20.8,21.1 z"
       inkscape:connector-curvature="0"
       style="stroke:#000000;stroke-width:2;stroke-miterlimit:10" /></g></svg>