<?xml version="1.0" encoding="utf-8"?>
<!-- Generator: Adobe Illustrator 19.0.0, SVG Export Plug-In . SVG Version: 6.00 Build 0)  -->
<svg version="1.1" id="Capa_1" xmlns="http://www.w3.org/2000/svg" xmlns:xlink="http://www.w3.org/1999/xlink" x="0px" y="0px"
	 viewBox="0 0 220.1 311.3" style="enable-background:new 0 0 220.1 311.3;" xml:space="preserve">
<style type="text/css">
	.st0{fill:none;stroke:#000000;stroke-width:5;stroke-linecap:square;stroke-linejoin:round;stroke-miterlimit:10;}
	.st1{fill:none;stroke:#000000;stroke-width:5;stroke-linecap:square;stroke-miterlimit:10;}
</style>
<g id="XMLID_28_">
	<path id="XMLID_126_" class="st0" d="M141.1,228.8l0-20.6h20.6h2.7c2.9,0,5.2,2,5.8,4.7c0.1,0.4,0.1,0.8,0.1,1.3v14.7h-15.8"/>
	<path id="XMLID_129_" class="st0" d="M127.7,117.7c0,5,4,9,9,9h8.8c5,0,9-4,9-9v-8.8c0-5-4-9-9-9H134"/>
	<path id="XMLID_128_" class="st0" d="M88.3,99.9H76.8c-5,0-9,4-9,9v8.8c0,5,4,9,9,9h8.8c5,0,9-4,9-9"/>
	<path id="XMLID_27_" class="st1" d="M166.2,106.5c0-9.6-7.7-17.3-17.3-17.3H73.5c-9.6,0-17.3,7.7-17.3,17.3v25.3
		c0,9.6,7.7,17.3,17.3,17.3h7.7h41.1l1.5,0c1.2,0,2.5,0.1,3.6,0.4c7.8,1.6,13.7,8.1,13.7,15.9v7.3v35.5v20.6c0,0-59.9,0-59.9,0
		l0-20.6H60.6h-2.7c-2.9,0-5.2,2-5.8,4.7c-0.1,0.4-0.1,0.8-0.1,1.3v14.7h14.6"/>
	<path id="XMLID_125_" class="st0" d="M124.6,133.6c0,5-4,9-9,9h-8.8c-5,0-9-4-9-9"/>
	<path id="XMLID_127_" class="st0" d="M81.2,162.8c1.6-7.8,8.1-13.7,15.9-13.7"/>
</g>
</svg>
