<?xml version="1.0" encoding="UTF-8" standalone="no"?>
<!-- Created with Inkscape (http://www.inkscape.org/) -->

<svg
   xmlns:dc="http://purl.org/dc/elements/1.1/"
   xmlns:cc="http://creativecommons.org/ns#"
   xmlns:rdf="http://www.w3.org/1999/02/22-rdf-syntax-ns#"
   xmlns:svg="http://www.w3.org/2000/svg"
   xmlns="http://www.w3.org/2000/svg"
   xmlns:sodipodi="http://sodipodi.sourceforge.net/DTD/sodipodi-0.dtd"
   xmlns:inkscape="http://www.inkscape.org/namespaces/inkscape"
   width="210mm"
   height="297mm"
   viewBox="0 0 744.09448819 1052.3622047"
   id="svg2"
   version="1.1"
   inkscape:version="0.91 r13725"
   sodipodi:docname="bot.svg">
  <defs
     id="defs4">
    <inkscape:path-effect
       is_visible="true"
       id="path-effect4445"
       effect="spiro" />
    <inkscape:path-effect
       effect="spiro"
       id="path-effect4441"
       is_visible="true" />
    <inkscape:path-effect
       is_visible="true"
       id="path-effect4437"
       effect="spiro" />
    <inkscape:path-effect
       effect="spiro"
       id="path-effect4433"
       is_visible="true" />
    <inkscape:path-effect
       is_visible="true"
       id="path-effect4425"
       effect="spiro" />
    <inkscape:path-effect
       effect="spiro"
       id="path-effect4421"
       is_visible="true" />
    <inkscape:path-effect
       effect="spiro"
       id="path-effect4417"
       is_visible="true" />
    <inkscape:path-effect
       effect="spiro"
       id="path-effect4413"
       is_visible="true" />
    <inkscape:path-effect
       effect="spiro"
       id="path-effect4391"
       is_visible="true" />
    <inkscape:path-effect
       effect="spiro"
       id="path-effect4341"
       is_visible="true" />
    <inkscape:path-effect
       effect="spiro"
       id="path-effect4391-2"
       is_visible="true" />
  </defs>
  <sodipodi:namedview
     id="base"
     pagecolor="#ffffff"
     bordercolor="#666666"
     borderopacity="1.0"
     inkscape:pageopacity="0.0"
     inkscape:pageshadow="2"
     inkscape:zoom="1.4"
     inkscape:cx="342.58503"
     inkscape:cy="612.66733"
     inkscape:document-units="px"
     inkscape:current-layer="layer1"
     showgrid="false"
     inkscape:window-width="1360"
     inkscape:window-height="768"
     inkscape:window-x="1366"
     inkscape:window-y="0"
     inkscape:window-maximized="0" />
  <metadata
     id="metadata7">
    <rdf:RDF>
      <cc:Work
         rdf:about="">
        <dc:format>image/svg+xml</dc:format>
        <dc:type
           rdf:resource="http://purl.org/dc/dcmitype/StillImage" />
        <dc:title></dc:title>
      </cc:Work>
    </rdf:RDF>
  </metadata>
  <g
     inkscape:label="Layer 1"
     inkscape:groupmode="layer"
     id="layer1">
    <path
       style="fill:#0093d0;fill-opacity:0;stroke:#000000;stroke-width:0.87199998;stroke-linecap:square;stroke-linejoin:miter;stroke-miterlimit:0;stroke-dasharray:none;stroke-dashoffset:0;stroke-opacity:1"
       d="m 327.71946,391.49372 2.0203,-80.81221 c 60.75423,-0.26317 117.05714,-8.59436 162.63456,-36.36549"
       id="path4136"
       inkscape:connector-curvature="0"
       sodipodi:nodetypes="ccc" />
    <path
       style="fill:#0093d0;fill-opacity:0;stroke:#000000;stroke-width:0.87199998;stroke-linecap:square;stroke-linejoin:miter;stroke-miterlimit:0;stroke-dasharray:none;stroke-dashoffset:0;stroke-opacity:1"
       d="m 492.72572,274.4697 -2.0203,80.81221 c -41.09101,42.80756 -104.55587,34.97745 -162.63456,36.36549"
       id="path4136-3"
       inkscape:connector-curvature="0"
       sodipodi:nodetypes="ccc" />
    <path
       inkscape:connector-curvature="0"
       id="path4171"
       d="m 243.8768,351.08762 2.0203,-80.81221 162.63456,-36.36549"
       style="fill:#0093d0;fill-opacity:0;stroke:#000000;stroke-width:0.87199998;stroke-linecap:square;stroke-linejoin:miter;stroke-miterlimit:0;stroke-dasharray:none;stroke-dashoffset:0;stroke-opacity:1" />
    <path
       style="fill:#0093d0;fill-opacity:0;stroke:#000000;stroke-width:0.87199998;stroke-linecap:square;stroke-linejoin:miter;stroke-miterlimit:0;stroke-dasharray:none;stroke-dashoffset:0;stroke-opacity:1"
       d="M 327.49074,391.21736 244.15315,350.55872"
       id="path4175"
       inkscape:connector-curvature="0" />
    <path
       style="fill:#0093d0;fill-opacity:0;stroke:#000000;stroke-width:0.87199998;stroke-linecap:square;stroke-linejoin:miter;stroke-miterlimit:0;stroke-dasharray:none;stroke-dashoffset:0;stroke-opacity:1"
       d="M 330.26866,310.40516 246.426,270.25159"
       id="path4177"
       inkscape:connector-curvature="0" />
    <path
       style="fill:#0093d0;fill-opacity:0;stroke:#000000;stroke-width:0.87199998;stroke-linecap:square;stroke-linejoin:miter;stroke-miterlimit:0;stroke-dasharray:none;stroke-dashoffset:0;stroke-opacity:1"
       d="M 492.39814,274.2922 408.80802,233.63356"
       id="path4179"
       inkscape:connector-curvature="0" />
    <path
       style="fill:#0093d0;fill-opacity:0;stroke:#000000;stroke-width:0.59748709;stroke-linecap:square;stroke-linejoin:miter;stroke-miterlimit:0;stroke-dasharray:none;stroke-dashoffset:0;stroke-opacity:1"
       d="m 351.7651,499.38557 0.0137,-108.01199"
       id="path4136-3-5-3"
       inkscape:connector-curvature="0"
       sodipodi:nodetypes="cc" />
    <path
       sodipodi:nodetypes="ccc"
       inkscape:connector-curvature="0"
       id="path4211"
       d="m 458.77749,377.35728 -0.44298,109.87249 -100.99709,24.09479"
       style="fill:#0093d0;fill-opacity:0;stroke:#000000;stroke-width:0.59748709;stroke-linecap:square;stroke-linejoin:miter;stroke-miterlimit:0;stroke-dasharray:none;stroke-dashoffset:0;stroke-opacity:1" />
    <path
       sodipodi:nodetypes="cc"
       inkscape:connector-curvature="0"
       id="path4260"
       d="m 265.97778,429.32188 -0.0341,-68.52925"
       style="fill:#0093d0;fill-opacity:0;stroke:#000000;stroke-width:0.59748709;stroke-linecap:square;stroke-linejoin:miter;stroke-miterlimit:0;stroke-dasharray:none;stroke-dashoffset:0;stroke-opacity:1" />
    <ellipse
       style="fill:#0093d0;fill-opacity:0;stroke:#000000;stroke-width:0.87199998;stroke-linecap:square;stroke-linejoin:round;stroke-miterlimit:0;stroke-dasharray:none;stroke-dashoffset:0;stroke-opacity:1"
       id="path4304"
       cx="388.75"
       cy="346.64792"
       rx="10.535713"
       ry="28.571428" />
    <ellipse
       ry="28.571428"
       rx="10.535713"
       cy="329.50507"
       cx="460.89288"
       id="ellipse4321"
       style="fill:#0093d0;fill-opacity:0;stroke:#000000;stroke-width:0.87199998;stroke-linecap:square;stroke-linejoin:round;stroke-miterlimit:0;stroke-dasharray:none;stroke-dashoffset:0;stroke-opacity:1" />
    <path
       sodipodi:type="spiral"
       style="fill:none;fill-rule:evenodd;stroke:#000000;stroke-width:1px;stroke-linecap:butt;stroke-linejoin:miter;stroke-opacity:1"
       id="path4387"
       sodipodi:cx="432.36322"
       sodipodi:cy="363.05563"
       sodipodi:expansion="1"
       sodipodi:revolution="2.7255001"
       sodipodi:radius="13.946875"
       sodipodi:argument="-14.07389"
       sodipodi:t0="0.796112"
       d="m 442.40602,358.32015 c 3.17753,5.62991 0.79871,12.85215 -4.76171,15.9354 -6.26174,3.47213 -14.25544,0.81644 -17.63811,-5.37321 -0.77394,-1.41615 -1.29306,-2.96828 -1.53258,-4.56401" />
    <path
       style="fill:#0093d0;fill-opacity:0;stroke:#000000;stroke-width:0.87199998;stroke-linecap:square;stroke-linejoin:round;stroke-miterlimit:0;stroke-dasharray:none;stroke-dashoffset:0;stroke-opacity:1"
       d="m 243.92857,483.43363 115.71429,63.57143 c 1.11772,0.61405 2.24372,1.22455 3.44203,1.6609 1.19832,0.43634 2.47078,0.69553 3.74548,0.65694 1.2747,-0.0386 2.54413,-0.37959 3.64546,-1.02256 1.10134,-0.64297 2.02547,-1.58384 2.65531,-2.69274 0.62984,-1.1089 0.96449,-2.37709 1.0124,-3.65148 0.0479,-1.27438 -0.1857,-2.551 -0.60692,-3.75472 -0.84243,-2.40743 -2.40842,-4.48004 -3.89376,-6.55348 -13.63288,-19.03063 -21.25724,-41.6622 -33.10103,-61.85489 -5.9219,-10.09635 -12.9777,-19.6574 -21.89283,-27.24196 -8.91513,-7.58455 -19.80783,-13.12525 -31.43471,-14.47458 -11.07103,-1.28482 -22.72359,1.43365 -31.55722,8.22963 -4.41682,3.39799 -8.09653,7.77029 -10.58311,12.75743 -2.48658,4.98714 -3.76653,10.58646 -3.57396,16.1558 0.22597,6.53531 2.50231,12.98495 6.42857,18.21428 z"
       id="path4419"
       inkscape:path-effect="#path-effect4421"
       inkscape:original-d="m 243.92857,483.43363 115.71429,63.57143 c 0,0 28.92857,13.92857 10,-15.35714 -18.92857,-29.28572 -86.42857,-103.57143 -86.42857,-103.57143 0,0 -88.92858,-95.35714 -45.71429,37.14286 43.21429,132.5 6.42857,18.21428 6.42857,18.21428 z"
       inkscape:connector-curvature="0" />
    <path
       inkscape:connector-curvature="0"
       inkscape:original-d="m 230.17857,491.1122 115.71429,63.57143 c 0,0 28.92857,13.92857 10,-15.35714 -18.92857,-29.28572 -86.42857,-103.57143 -86.42857,-103.57143 0,0 -88.92858,-95.35714 -45.71429,37.14286 43.21429,132.5 6.42857,18.21428 6.42857,18.21428 z"
       inkscape:path-effect="#path-effect4425"
       id="path4423"
       d="m 230.17857,491.1122 115.71429,63.57143 c 1.11772,0.61405 2.24372,1.22455 3.44203,1.6609 1.19832,0.43634 2.47078,0.69553 3.74548,0.65694 1.2747,-0.0386 2.54413,-0.37959 3.64546,-1.02256 1.10134,-0.64297 2.02547,-1.58384 2.65531,-2.69274 0.62984,-1.1089 0.96449,-2.37709 1.0124,-3.65148 0.0479,-1.27438 -0.1857,-2.551 -0.60692,-3.75472 -0.84243,-2.40743 -2.40842,-4.48004 -3.89376,-6.55348 -13.63288,-19.03063 -21.25724,-41.6622 -33.10103,-61.85489 -5.9219,-10.09635 -12.9777,-19.6574 -21.89283,-27.24196 -8.91513,-7.58455 -19.80783,-13.12525 -31.43471,-14.47458 -11.07103,-1.28482 -22.72359,1.43365 -31.55722,8.22963 -4.41682,3.39799 -8.09653,7.77029 -10.58311,12.75743 -2.48658,4.98714 -3.76653,10.58646 -3.57396,16.1558 0.22597,6.53531 2.50231,12.98495 6.42857,18.21428 z"
       style="fill:#0093d0;fill-opacity:0;stroke:#000000;stroke-width:0.87199998;stroke-linecap:square;stroke-linejoin:round;stroke-miterlimit:0;stroke-dasharray:none;stroke-dashoffset:0;stroke-opacity:1" />
    <path
       style="fill:#0093d0;fill-opacity:0;stroke:#000000;stroke-width:0.87199998;stroke-linecap:square;stroke-linejoin:round;stroke-miterlimit:0;stroke-dasharray:none;stroke-dashoffset:0;stroke-opacity:1"
       d="m 370.89286,548.43363 -12.85714,6.96429"
       id="path4431"
       inkscape:path-effect="#path-effect4433"
       inkscape:original-d="m 370.89286,548.43363 -12.85714,6.96429"
       inkscape:connector-curvature="0" />
    <path
       inkscape:connector-curvature="0"
       inkscape:original-d="m 363.63165,441.5123 115.71429,63.57143 c 0,0 28.92857,13.92857 10,-15.35714 -18.92857,-29.28572 -86.42857,-103.57143 -86.42857,-103.57143 0,0 -88.92858,-95.35714 -45.71429,37.14286 43.21429,132.5 6.42857,18.21428 6.42857,18.21428 z"
       inkscape:path-effect="#path-effect4437"
       id="path4435"
       d="m 363.63165,441.5123 115.71429,63.57143 c 1.11772,0.61405 2.24372,1.22455 3.44203,1.6609 1.19832,0.43634 2.47078,0.69553 3.74548,0.65694 1.2747,-0.0386 2.54413,-0.37959 3.64546,-1.02256 1.10134,-0.64297 2.02547,-1.58384 2.65531,-2.69274 0.62984,-1.1089 0.96449,-2.37709 1.0124,-3.65148 0.0479,-1.27438 -0.1857,-2.551 -0.60692,-3.75472 -0.84243,-2.40743 -2.40842,-4.48004 -3.89376,-6.55348 -13.63288,-19.03063 -21.25724,-41.6622 -33.10103,-61.85489 -5.9219,-10.09635 -12.9777,-19.6574 -21.89283,-27.24196 -8.91513,-7.58455 -19.80783,-13.12525 -31.43471,-14.47458 -11.07103,-1.28482 -22.72359,1.43365 -31.55722,8.22963 -4.41682,3.39799 -8.09653,7.77029 -10.58311,12.75743 -2.48658,4.98714 -3.76653,10.58646 -3.57396,16.1558 0.22597,6.53531 2.50231,12.98495 6.42857,18.21428 z"
       style="fill:#0093d0;fill-opacity:0;stroke:#000000;stroke-width:0.87199998;stroke-linecap:square;stroke-linejoin:round;stroke-miterlimit:0;stroke-dasharray:none;stroke-dashoffset:0;stroke-opacity:1" />
    <path
       style="fill:#0093d0;fill-opacity:0;stroke:#000000;stroke-width:0.87199998;stroke-linecap:square;stroke-linejoin:round;stroke-miterlimit:0;stroke-dasharray:none;stroke-dashoffset:0;stroke-opacity:1"
       d="m 349.88165,449.19087 115.71429,63.57143 c 1.11772,0.61405 2.24372,1.22455 3.44203,1.6609 1.19832,0.43634 2.47078,0.69553 3.74548,0.65694 1.2747,-0.0386 2.54413,-0.37959 3.64546,-1.02256 1.10134,-0.64297 2.02547,-1.58384 2.65531,-2.69274 0.62984,-1.1089 0.96449,-2.37709 1.0124,-3.65148 0.0479,-1.27438 -0.1857,-2.551 -0.60692,-3.75472 -0.84243,-2.40743 -2.40842,-4.48004 -3.89376,-6.55348 -13.63288,-19.03063 -21.25724,-41.6622 -33.10103,-61.85489 -5.9219,-10.09635 -12.9777,-19.6574 -21.89283,-27.24196 -8.91513,-7.58455 -19.80783,-13.12525 -31.43471,-14.47458 -11.07103,-1.28482 -22.72359,1.43365 -31.55722,8.22963 -4.41682,3.39799 -8.09653,7.77029 -10.58311,12.75743 -2.48658,4.98714 -3.76653,10.58646 -3.57396,16.1558 0.22597,6.53531 2.50231,12.98495 6.42857,18.21428 z"
       id="path4439"
       inkscape:path-effect="#path-effect4441"
       inkscape:original-d="m 349.88165,449.19087 115.71429,63.57143 c 0,0 28.92857,13.92857 10,-15.35714 -18.92857,-29.28572 -86.42857,-103.57143 -86.42857,-103.57143 0,0 -88.92858,-95.35714 -45.71429,37.14286 43.21429,132.5 6.42857,18.21428 6.42857,18.21428 z"
       inkscape:connector-curvature="0" />
    <path
       inkscape:connector-curvature="0"
       inkscape:original-d="m 490.59594,506.5123 -12.85714,6.96429"
       inkscape:path-effect="#path-effect4445"
       id="path4443"
       d="m 490.59594,506.5123 -12.85714,6.96429"
       style="fill:#0093d0;fill-opacity:0;stroke:#000000;stroke-width:0.87199998;stroke-linecap:square;stroke-linejoin:round;stroke-miterlimit:0;stroke-dasharray:none;stroke-dashoffset:0;stroke-opacity:1" />
  </g>
</svg>
