<?xml version="1.0" encoding="UTF-8" standalone="no"?>
<!-- Generator: Adobe Illustrator 19.0.0, SVG Export Plug-In . SVG Version: 6.00 Build 0)  -->

<svg
   xmlns:dc="http://purl.org/dc/elements/1.1/"
   xmlns:cc="http://creativecommons.org/ns#"
   xmlns:rdf="http://www.w3.org/1999/02/22-rdf-syntax-ns#"
   xmlns:svg="http://www.w3.org/2000/svg"
   xmlns="http://www.w3.org/2000/svg"
   xmlns:sodipodi="http://sodipodi.sourceforge.net/DTD/sodipodi-0.dtd"
   xmlns:inkscape="http://www.inkscape.org/namespaces/inkscape"
   version="1.1"
   id="Capa_1"
   x="0px"
   y="0px"
   viewBox="0 0 994.5 318.2"
   style="enable-background:new 0 0 994.5 318.2;"
   xml:space="preserve"
   inkscape:version="0.91 r13725"
   sodipodi:docname="logo.svg"><metadata
     id="metadata27"><rdf:RDF><cc:Work
         rdf:about=""><dc:format>image/svg+xml</dc:format><dc:type
           rdf:resource="http://purl.org/dc/dcmitype/StillImage" /><dc:title></dc:title></cc:Work></rdf:RDF></metadata><defs
     id="defs25" /><sodipodi:namedview
     pagecolor="#ffffff"
     bordercolor="#666666"
     borderopacity="1"
     objecttolerance="10"
     gridtolerance="10"
     guidetolerance="10"
     inkscape:pageopacity="1"
     inkscape:pageshadow="2"
     inkscape:window-width="1360"
     inkscape:window-height="768"
     id="namedview23"
     showgrid="false"
     inkscape:zoom="1.1319397"
     inkscape:cx="518.03986"
     inkscape:cy="177.20884"
     inkscape:window-x="1366"
     inkscape:window-y="0"
     inkscape:window-maximized="0"
     inkscape:current-layer="Capa_1" /><style
     type="text/css"
     id="style3">
	.st0{fill:#010202;}
	.st1{fill:none;stroke:#000000;stroke-width:14;stroke-linecap:square;stroke-miterlimit:10;}
	.st2{stroke:#000000;stroke-width:2;stroke-miterlimit:10;}
</style><g
     id="XMLID_22_"><path
       id="XMLID_25_"
       class="st0"
       d="M87.6,180.2l20.5-0.1v13.4H89.5H71.4H52.3c-12.4,0-18.6-4.8-18.6-14.5v-20.5   c0-9.6,6.2-14.4,18.6-14.4h37.2h18.6v13.1l-20.5,0.1h-34c-4.6,0-6.9,1.2-6.9,3.5v15.3c0,2.7,2.3,4,6.9,4h17.3H87.6z" /><path
       id="XMLID_58_"
       class="st0"
       d="M145.3,193.5c-12.4,0-18.6-4.8-18.6-14.5v-20.5c0-9.6,6.2-14.4,18.6-14.4h37.2   c12.4,0,18.6,4.8,18.6,14.4V179c0,9.7-6.2,14.5-18.6,14.5h-18.1H145.3z M180.6,180.2c4.6,0,6.9-1.3,6.9-4v-15.3   c0-2.3-2.3-3.5-6.9-3.5h-34c-4.6,0-6.9,1.2-6.9,3.5v15.3c0,2.7,2.3,4,6.9,4h17.3H180.6z" /><path
       id="XMLID_68_"
       class="st0"
       d="M256.8,180.2h17.3h6.9l13-0.1v13.4h-18.6h-19.1h-18.1c-12.4,0-18.6-4.8-18.6-14.5v-20.5   c0-9.6,6.2-14.4,18.6-14.4h37.2h5.6v-8.4v-28h13v49.5l-19.9,0.1h-34c-4.6,0-6.9,1.2-6.9,3.5v15.3c0,2.7,2.3,4,6.9,4H256.8z" /><path
       id="XMLID_73_"
       class="st0"
       d="M387,180.1v13.4h-18.6h-18.1h-19.1c-12.4,0-18.6-4.8-18.6-14.5v-20.5c0-9.6,6.2-14.4,18.6-14.4   h37.2c12.4,0,18.6,4.2,18.6,12.6l-27,17.4h-22.9l26.9-16.9h-4.4l-27.1,0.1c-4.6,0-6.9,1.2-6.9,3.5v15.3c0,2.7,2.3,4,6.9,4h17.3   L387,180.1z" /><path
       id="XMLID_75_"
       class="st0"
       d="M459.5,180.2c4.6,0,6.9-1.3,6.9-4v-15.3c0-2.3-2.3-3.5-6.9-3.5h-34l-19.9-0.1v-49.5h13v28v8.4   h5.6h37.2c12.4,0,18.6,4.8,18.6,14.4V179c0,9.7-6.2,14.5-18.6,14.5h-18.1h-19.1h-18.6v-13.4l13,0.1h6.9h17.3H459.5z" /><path
       id="XMLID_77_"
       class="st0"
       d="M517.1,193.5c-12.4,0-18.6-4.8-18.6-14.5v-20.5c0-9.6,6.2-14.4,18.6-14.4h37.2   c12.4,0,18.6,4.8,18.6,14.4V179c0,9.7-6.2,14.5-18.6,14.5h-18.1H517.1z M552.5,180.2c4.6,0,6.9-1.3,6.9-4v-15.3   c0-2.3-2.3-3.5-6.9-3.5h-34c-4.6,0-6.9,1.2-6.9,3.5v15.3c0,2.7,2.3,4,6.9,4h17.3H552.5z" /><path
       id="XMLID_80_"
       class="st0"
       d="M610.1,144.1h37.2h18.6v13.1l-20.5,0.1h-34l-6.9-0.1v18.9c0,2.7,2.3,4,6.9,4h17.3h16.7   l20.2-0.1v13.4H647H629h-19.1c-12.4,0-18.6-4.8-18.6-14.3V159v-19.4v-17.4v-14.5h13.3v17.3v19.1H610.1z" /></g><g
     id="XMLID_59_"><g
       id="XMLID_61_"><path
         id="XMLID_60_"
         class="st1"
         d="M873.9,293.6" /></g><path
       id="XMLID_63_"
       d="M963.6,261.7c-1.8-8.5-9.3-14.6-17.9-14.6h-37.3v-75.6c0-18-13.3-33.8-31.6-37.5c-2.7-0.6-5.5-0.8-8.3-0.8   l-43.9,0v0h-7c0,0,0,0,0,0l-44.8,0c-14.3,0-25.9-11.9-25.9-26.4V57.8c0-14.6,11.6-26.4,25.9-26.4h143.4c14.3,0,25.9,11.9,25.9,26.4   v7h14v-7c0-22.3-17.9-40.4-39.9-40.4H772.8c-22,0-39.9,18.1-39.9,40.4v48.9c0,22.3,17.9,40.4,39.9,40.4l15.8,0   c-4.1,4.9-7,10.9-8.4,17.6c-0.6,2.7-0.8,5.5-0.8,8.3l0,9.9l14,0l0-9.9c0-1.9,0.2-3.7,0.6-5.5c2.4-11.8,12.4-20.4,23.8-20.4l50.9,0   c1.9,0,3.7,0.2,5.5,0.6c11.8,2.4,20.4,12.4,20.4,23.8V254v32.8l-99.9,0V247h-51.3c-8.6,0-16.1,6.2-17.9,14.6   c-0.3,1.3-0.4,2.6-0.4,3.9v35.3h41.8v-14h-27.8v-21.3c0-0.3,0-0.7,0.1-1c0.4-2,2.2-3.5,4.2-3.5h37.3v39.8l113.9,0v0h14v0V261h37.3   c2,0,3.8,1.5,4.2,3.5c0.1,0.3,0.1,0.6,0.1,1v21.3h-30.1v14H957c3.9,0,7-3.1,7-7v-28.3C964,264.3,963.9,263,963.6,261.7z" /></g><g
     id="XMLID_40_"
     transform="matrix(0.93243829,0,0,0.93243829,57.441483,0.8848849)"><path
       id="XMLID_41_"
       class="st2"
       d="m 905,101.8 -15.6,0 c -11.5,0 -20.9,-9.5 -20.9,-21.1 l 0,-4.9 9.8,0 0,4.9 c 0,6.2 4.9,11.3 11,11.3 l 15.7,0 c 6.1,0 11,-5.1 11,-11.3 l 0,-15.9 c 0,-6.2 -4.9,-11.3 -11,-11.3 l -25.4,0 0,-9.8 25.4,0 c 11.5,0 20.9,9.5 20.9,21.1 l 0,15.8 c 0,11.7 -9.4,21.2 -20.9,21.2 z"
       inkscape:connector-curvature="0"
       style="stroke:#000000;stroke-width:2;stroke-miterlimit:10" /></g><g
     id="XMLID_38_"
     transform="matrix(0.93243829,0,0,0.93243829,55.441483,0.8848849)"><path
       id="XMLID_39_"
       class="st2"
       d="m 798.9,101.8 -15.6,0 c -11.5,0 -20.9,-9.5 -20.9,-21.1 l 0,-15.9 c 0,-11.6 9.4,-21.1 20.9,-21.1 l 25.4,0 0,9.8 -25.4,0 c -6.1,0 -11,5.1 -11,11.3 l 0,15.8 c 0,6.2 4.9,11.3 11,11.3 l 15.6,0 c 6.1,0 11,-5.1 11,-11.3 l 0,-4.9 9.8,0 0,4.9 c 0.1,11.7 -9.3,21.2 -20.8,21.2 z"
       inkscape:connector-curvature="0"
       style="stroke:#000000;stroke-width:2;stroke-miterlimit:10" /></g><g
     id="XMLID_1_"
     transform="matrix(0.86613873,0,0,0.86613873,113.03001,13.667236)"><path
       id="XMLID_10_"
       class="st2"
       d="m 852,129.1 -15.6,0 c -11.5,0 -20.9,-9.5 -20.9,-21.1 l 0,-4.9 9.8,0 0,4.9 c 0,6.2 4.9,11.3 11,11.3 l 15.7,0 c 6.1,0 11,-5.1 11,-11.3 l 0,-4.9 9.8,0 0,4.9 c 0,11.7 -9.3,21.1 -20.8,21.1 z"
       inkscape:connector-curvature="0"
       style="stroke:#000000;stroke-width:2;stroke-miterlimit:10" /></g></svg>